<svg width="28" height="28" viewBox="0 0 28 28" fill="none" xmlns="http://www.w3.org/2000/svg">
<path d="M25.3282 23.6713L20.9999 19.378C22.68 17.2831 23.4936 14.6242 23.2735 11.9478C23.0534 9.2715 21.8162 6.78122 19.8163 4.98906C17.8165 3.1969 15.206 2.23907 12.5216 2.31253C9.83727 2.38598 7.28306 3.48513 5.38422 5.38398C3.48538 7.28282 2.38622 9.83702 2.31277 12.5214C2.23932 15.2058 3.19715 17.8162 4.98931 19.8161C6.78147 21.8159 9.27174 23.0531 11.9481 23.2733C14.6244 23.4934 17.2834 22.6798 19.3782 20.9996L23.6716 25.293C23.78 25.4023 23.909 25.4891 24.0512 25.5484C24.1934 25.6076 24.3459 25.6381 24.4999 25.6381C24.6539 25.6381 24.8064 25.6076 24.9486 25.5484C25.0907 25.4891 25.2198 25.4023 25.3282 25.293C25.5385 25.0754 25.656 24.7847 25.656 24.4821C25.656 24.1796 25.5385 23.8889 25.3282 23.6713ZM12.8332 20.9996C11.218 20.9996 9.63907 20.5207 8.29607 19.6233C6.95306 18.726 5.90632 17.4505 5.28821 15.9582C4.67009 14.466 4.50836 12.8239 4.82348 11.2397C5.13859 9.65556 5.91639 8.2004 7.05852 7.05827C8.20065 5.91614 9.65581 5.13834 11.24 4.82323C12.8242 4.50812 14.4662 4.66985 15.9585 5.28796C17.4507 5.90608 18.7262 6.95282 19.6236 8.29582C20.5209 9.63882 20.9999 11.2178 20.9999 12.833C20.9999 14.9989 20.1395 17.0761 18.6079 18.6077C17.0764 20.1392 14.9992 20.9996 12.8332 20.9996Z" fill="white"/>
</svg>
