<svg width="65" height="65" viewBox="0 0 65 65" fill="none" xmlns="http://www.w3.org/2000/svg">
<path d="M48.75 12.1333C44.4402 7.82355 38.5949 5.40234 32.5 5.40234C26.4051 5.40234 20.5598 7.82355 16.25 12.1333C11.9402 16.4431 9.51904 22.2884 9.51904 28.3833C9.51904 34.4782 11.9402 40.3235 16.25 44.6333L30.5229 58.9333C30.7747 59.1872 31.0742 59.3886 31.4043 59.5261C31.7343 59.6636 32.0883 59.7344 32.4458 59.7344C32.8034 59.7344 33.1574 59.6636 33.4874 59.5261C33.8174 59.3886 34.117 59.1872 34.3688 58.9333L48.75 44.4979C53.0418 40.2061 55.4529 34.3851 55.4529 28.3156C55.4529 22.2461 53.0418 16.4252 48.75 12.1333ZM44.8771 40.625L32.5 53.0562L20.1229 40.625C17.6777 38.1775 16.013 35.06 15.3392 31.6666C14.6654 28.2732 15.0128 24.7562 16.3375 21.5602C17.6622 18.3641 19.9047 15.6326 22.7815 13.7109C25.6583 11.7891 29.0403 10.7634 32.5 10.7634C35.9597 10.7634 39.3417 11.7891 42.2185 13.7109C45.0953 15.6326 47.3378 18.3641 48.6625 21.5602C49.9872 24.7562 50.3346 28.2732 49.6608 31.6666C48.9871 35.06 47.3223 38.1775 44.8771 40.625ZM24.375 20.0687C22.1886 22.2619 20.9609 25.2323 20.9609 28.3291C20.9609 31.4259 22.1886 34.3964 24.375 36.5896C25.9994 38.2167 28.0681 39.3279 30.3216 39.7838C32.5751 40.2397 34.913 40.0199 37.0421 39.1521C39.1712 38.2842 40.9965 36.807 42.2892 34.9057C43.5819 33.0043 44.2843 30.7636 44.3083 28.4646C44.3205 26.9295 44.0248 25.4076 43.4387 23.9887C42.8526 22.5699 41.9879 21.283 40.8958 20.2041C39.8225 19.1061 38.5425 18.2312 37.1297 17.6298C35.7169 17.0283 34.1991 16.7122 32.6636 16.6996C31.1281 16.6871 29.6053 16.9782 28.1828 17.5564C26.7604 18.1347 25.4663 18.9885 24.375 20.0687ZM37.0771 32.7437C36.0508 33.7857 34.6943 34.4389 33.2397 34.5915C31.7851 34.7441 30.3227 34.3867 29.1024 33.5804C27.8822 32.7741 26.9799 31.569 26.5498 30.171C26.1198 28.7731 26.1886 27.2692 26.7447 25.9164C27.3007 24.5637 28.3094 23.4461 29.5983 22.7547C30.8871 22.0633 32.3761 21.8411 33.8107 22.126C35.2452 22.411 36.5363 23.1854 37.4631 24.3168C38.3898 25.4483 38.8948 26.8666 38.8917 28.3291C38.8523 30.0009 38.1509 31.5887 36.9417 32.7437H37.0771Z" fill="#A72B0C"/>
</svg>
