<svg width="40" height="40" viewBox="0 0 40 40" fill="none" xmlns="http://www.w3.org/2000/svg">
<path d="M25.0001 16.667H20.0001V11.667C20.0001 11.225 19.8245 10.801 19.5119 10.4885C19.1994 10.1759 18.7754 10.0003 18.3334 10.0003C17.8914 10.0003 17.4675 10.1759 17.1549 10.4885C16.8423 10.801 16.6668 11.225 16.6668 11.667V16.667H11.6668C11.2247 16.667 10.8008 16.8426 10.4882 17.1552C10.1757 17.4677 10.0001 17.8916 10.0001 18.3337C10.0001 18.7757 10.1757 19.1996 10.4882 19.5122C10.8008 19.8247 11.2247 20.0003 11.6668 20.0003H16.6668V25.0003C16.6668 25.4424 16.8423 25.8663 17.1549 26.1788C17.4675 26.4914 17.8914 26.667 18.3334 26.667C18.7754 26.667 19.1994 26.4914 19.5119 26.1788C19.8245 25.8663 20.0001 25.4424 20.0001 25.0003V20.0003H25.0001C25.4421 20.0003 25.866 19.8247 26.1786 19.5122C26.4912 19.1996 26.6668 18.7757 26.6668 18.3337C26.6668 17.8916 26.4912 17.4677 26.1786 17.1552C25.866 16.8426 25.4421 16.667 25.0001 16.667ZM36.1834 33.817L30.0001 27.6837C32.4002 24.691 33.5626 20.8925 33.2481 17.0692C32.9336 13.2458 31.1662 9.6883 28.3093 7.12807C25.4524 4.56784 21.7231 3.19951 17.8883 3.30445C14.0535 3.40938 10.4046 4.9796 7.69199 7.69223C4.97935 10.4049 3.40914 14.0537 3.3042 17.8885C3.19927 21.7233 4.56759 25.4526 7.12783 28.3095C9.68806 31.1664 13.2456 32.9339 17.0689 33.2483C20.8922 33.5628 24.6908 32.4005 27.6834 30.0003L33.8168 36.1337C33.9717 36.2899 34.156 36.4139 34.3591 36.4985C34.5622 36.5831 34.7801 36.6267 35.0001 36.6267C35.2201 36.6267 35.4379 36.5831 35.641 36.4985C35.8441 36.4139 36.0285 36.2899 36.1834 36.1337C36.4838 35.8229 36.6517 35.4076 36.6517 34.9753C36.6517 34.5431 36.4838 34.1278 36.1834 33.817ZM18.3334 30.0003C16.026 30.0003 13.7703 29.3161 11.8518 28.0341C9.93319 26.7522 8.43785 24.9301 7.55482 22.7983C6.6718 20.6665 6.44076 18.3207 6.89092 16.0576C7.34108 13.7945 8.45223 11.7157 10.0838 10.0841C11.7155 8.45247 13.7943 7.34133 16.0574 6.89117C18.3205 6.44101 20.6663 6.67204 22.7981 7.55507C24.9299 8.43809 26.7519 9.93344 28.0339 11.852C29.3158 13.7706 30.0001 16.0262 30.0001 18.3337C30.0001 21.4279 28.7709 24.3953 26.583 26.5832C24.3951 28.7712 21.4276 30.0003 18.3334 30.0003Z" fill="white"/>
</svg>
