<svg width="222" height="64" viewBox="0 0 222 64" fill="none" xmlns="http://www.w3.org/2000/svg">
<path d="M102 26.666C100.945 26.666 99.914 26.9788 99.037 27.5648C98.1599 28.1509 97.4763 28.9838 97.0726 29.9584C96.669 30.9329 96.5634 32.0053 96.7691 33.0398C96.9749 34.0744 97.4829 35.0247 98.2288 35.7706C98.9746 36.5165 99.925 37.0244 100.96 37.2302C101.994 37.436 103.066 37.3304 104.041 36.9267C105.016 36.523 105.848 35.8395 106.435 34.9624C107.021 34.0853 107.333 33.0542 107.333 31.9993C107.333 30.5849 106.771 29.2283 105.771 28.2281C104.771 27.2279 103.414 26.666 102 26.666ZM83.3333 26.666C82.2785 26.666 81.2474 26.9788 80.3703 27.5648C79.4932 28.1509 78.8096 28.9838 78.406 29.9584C78.0023 30.9329 77.8967 32.0053 78.1025 33.0398C78.3083 34.0744 78.8162 35.0247 79.5621 35.7706C80.308 36.5165 81.2583 37.0244 82.2929 37.2302C83.3274 37.436 84.3998 37.3304 85.3743 36.9267C86.3489 36.523 87.1818 35.8395 87.7678 34.9624C88.3539 34.0853 88.6667 33.0542 88.6667 31.9993C88.6667 30.5849 88.1048 29.2283 87.1046 28.2281C86.1044 27.2279 84.7478 26.666 83.3333 26.666ZM120.667 26.666C119.612 26.666 118.581 26.9788 117.704 27.5648C116.827 28.1509 116.143 28.9838 115.739 29.9584C115.336 30.9329 115.23 32.0053 115.436 33.0398C115.642 34.0744 116.15 35.0247 116.895 35.7706C117.641 36.5165 118.592 37.0244 119.626 37.2302C120.661 37.436 121.733 37.3304 122.708 36.9267C123.682 36.523 124.515 35.8395 125.101 34.9624C125.687 34.0853 126 33.0542 126 31.9993C126 30.5849 125.438 29.2283 124.438 28.2281C123.438 27.2279 122.081 26.666 120.667 26.666Z" fill="white"/>
<path d="M121 26.666C119.945 26.666 118.914 26.9788 118.037 27.5648C117.16 28.1509 116.476 28.9838 116.073 29.9584C115.669 30.9329 115.563 32.0053 115.769 33.0398C115.975 34.0744 116.483 35.0247 117.229 35.7706C117.975 36.5165 118.925 37.0244 119.96 37.2302C120.994 37.436 122.066 37.3304 123.041 36.9267C124.016 36.523 124.848 35.8395 125.435 34.9624C126.021 34.0853 126.333 33.0542 126.333 31.9993C126.333 30.5849 125.771 29.2283 124.771 28.2281C123.771 27.2279 122.414 26.666 121 26.666ZM102.333 26.666C101.279 26.666 100.247 26.9788 99.3703 27.5648C98.4932 28.1509 97.8096 28.9838 97.406 29.9584C97.0023 30.9329 96.8967 32.0053 97.1025 33.0398C97.3083 34.0744 97.8162 35.0247 98.5621 35.7706C99.308 36.5165 100.258 37.0244 101.293 37.2302C102.327 37.436 103.4 37.3304 104.374 36.9267C105.349 36.523 106.182 35.8395 106.768 34.9624C107.354 34.0853 107.667 33.0542 107.667 31.9993C107.667 30.5849 107.105 29.2283 106.105 28.2281C105.104 27.2279 103.748 26.666 102.333 26.666ZM139.667 26.666C138.612 26.666 137.581 26.9788 136.704 27.5648C135.827 28.1509 135.143 28.9838 134.739 29.9584C134.336 30.9329 134.23 32.0053 134.436 33.0398C134.642 34.0744 135.15 35.0247 135.895 35.7706C136.641 36.5165 137.592 37.0244 138.626 37.2302C139.661 37.436 140.733 37.3304 141.708 36.9267C142.682 36.523 143.515 35.8395 144.101 34.9624C144.687 34.0853 145 33.0542 145 31.9993C145 30.5849 144.438 29.2283 143.438 28.2281C142.438 27.2279 141.081 26.666 139.667 26.666Z" fill="white"/>
<path d="M183.333 13.334L201.293 31.2935C201.683 31.6841 201.683 32.3172 201.293 32.7078L183.333 50.6673" stroke="white" stroke-width="2" stroke-linecap="round" stroke-linejoin="round"/>
<path d="M41.3334 50.666L23.3739 32.7065C22.9833 32.3159 22.9833 31.6828 23.3739 31.2922L41.3334 13.3327" stroke="white" stroke-width="2" stroke-linecap="round" stroke-linejoin="round"/>
</svg>
