<svg width="64" height="90" viewBox="0 0 64 90" fill="none" xmlns="http://www.w3.org/2000/svg">
<path d="M22.5601 30.879C22.0579 30.1578 21.3712 29.7448 20.6511 29.7308C19.931 29.7169 19.2363 30.1031 18.7201 30.8045C18.2038 31.5059 17.9081 32.465 17.8981 33.4709C17.8881 34.4769 18.1646 35.4471 18.6667 36.1683L24.9067 44.6982L18.6667 53.2282C18.4168 53.5744 18.2184 53.9864 18.083 54.4403C17.9476 54.8942 17.8779 55.3811 17.8779 55.8728C17.8779 56.3646 17.9476 56.8514 18.083 57.3053C18.2184 57.7592 18.4168 58.1712 18.6667 58.5175C18.9146 58.8666 19.2096 59.1437 19.5345 59.3328C19.8595 59.5219 20.208 59.6193 20.5601 59.6193C20.9121 59.6193 21.2606 59.5219 21.5856 59.3328C21.9106 59.1437 22.2055 58.8666 22.4534 58.5175L30.4534 47.3429C30.7033 46.9966 30.9017 46.5846 31.0371 46.1307C31.1725 45.6768 31.2422 45.1899 31.2422 44.6982C31.2422 44.2065 31.1725 43.7196 31.0371 43.2657C30.9017 42.8118 30.7033 42.3998 30.4534 42.0536L22.5601 30.879ZM45.2267 42.0536L37.2267 30.879C36.7246 30.1776 36.0435 29.7835 35.3334 29.7835C34.6233 29.7835 33.9422 30.1776 33.4401 30.879C32.9379 31.5804 32.6558 32.5317 32.6558 33.5236C32.6558 34.5156 32.9379 35.4669 33.4401 36.1683L39.5734 44.6982L33.4401 53.2282C33.1901 53.5744 32.9917 53.9864 32.8563 54.4403C32.721 54.8942 32.6513 55.3811 32.6513 55.8728C32.6513 56.3646 32.721 56.8514 32.8563 57.3053C32.9917 57.7592 33.1901 58.1712 33.4401 58.5175C33.688 58.8666 33.9829 59.1437 34.3079 59.3328C34.6328 59.5219 34.9814 59.6193 35.3334 59.6193C35.6854 59.6193 36.034 59.5219 36.3589 59.3328C36.6839 59.1437 36.9788 58.8666 37.2267 58.5175L45.2267 47.3429C45.4838 47.0065 45.6906 46.6024 45.8352 46.1538C45.9798 45.7052 46.0594 45.2211 46.0693 44.7293C46.0792 44.2375 46.0193 43.7478 45.893 43.2886C45.7667 42.8293 45.5765 42.4096 45.3334 42.0536H45.2267Z" fill="white"/>
</svg>
