<svg width="180" height="145" viewBox="0 0 180 145" fill="none" xmlns="http://www.w3.org/2000/svg">
<path d="M83.6699 145C124.346 145 157.32 112.541 157.32 72.5C157.32 32.4594 124.346 0 83.6699 0C42.9942 0 10.02 32.4594 10.02 72.5C10.02 112.541 42.9942 145 83.6699 145Z" fill="#0B3D91"/>
<path d="M79.321 14.7388C79.777 14.7388 80.1467 14.3749 80.1467 13.9261C80.1467 13.4772 79.777 13.1133 79.321 13.1133C78.865 13.1133 78.4954 13.4772 78.4954 13.9261C78.4954 14.3749 78.865 14.7388 79.321 14.7388Z" fill="white"/>
<path d="M87.7981 15.8228C88.2541 15.8228 88.6238 15.4589 88.6238 15.01C88.6238 14.5612 88.2541 14.1973 87.7981 14.1973C87.3421 14.1973 86.9724 14.5612 86.9724 15.01C86.9724 15.4589 87.3421 15.8228 87.7981 15.8228Z" fill="white"/>
<path d="M98.917 30.5611C99.373 30.5611 99.7427 30.1972 99.7427 29.7483C99.7427 29.2994 99.373 28.9355 98.917 28.9355C98.461 28.9355 98.0913 29.2994 98.0913 29.7483C98.0913 30.1972 98.461 30.5611 98.917 30.5611Z" fill="white"/>
<path d="M37.9277 106.42C38.3837 106.42 38.7534 106.057 38.7534 105.608C38.7534 105.159 38.3837 104.795 37.9277 104.795C37.4717 104.795 37.1021 105.159 37.1021 105.608C37.1021 106.057 37.4717 106.42 37.9277 106.42Z" fill="white"/>
<path d="M40.0744 112.922C40.5304 112.922 40.9001 112.559 40.9001 112.11C40.9001 111.661 40.5304 111.297 40.0744 111.297C39.6184 111.297 39.2488 111.661 39.2488 112.11C39.2488 112.559 39.6184 112.922 40.0744 112.922Z" fill="white"/>
<path d="M29.8359 107.192C30.1774 107.192 30.4542 106.919 30.4542 106.583C30.4542 106.247 30.1774 105.975 29.8359 105.975C29.4944 105.975 29.2175 106.247 29.2175 106.583C29.2175 106.919 29.4944 107.192 29.8359 107.192Z" fill="white"/>
<path d="M63.4134 119.965C63.7559 119.965 64.0335 119.692 64.0335 119.355C64.0335 119.017 63.7559 118.744 63.4134 118.744C63.0709 118.744 62.7932 119.017 62.7932 119.355C62.7932 119.692 63.0709 119.965 63.4134 119.965Z" fill="white"/>
<path d="M116.076 109.196C116.418 109.196 116.695 108.923 116.695 108.587C116.695 108.251 116.418 107.979 116.076 107.979C115.735 107.979 115.458 108.251 115.458 108.587C115.458 108.923 115.735 109.196 116.076 109.196Z" fill="white"/>
<path d="M131.381 92.8342C131.723 92.8342 132.001 92.5609 132.001 92.2237C132.001 91.8866 131.723 91.6133 131.381 91.6133C131.038 91.6133 130.76 91.8866 130.76 92.2237C130.76 92.5609 131.038 92.8342 131.381 92.8342Z" fill="white"/>
<path d="M56.3676 35.1099C56.7091 35.1099 56.9859 34.8374 56.9859 34.5013C56.9859 34.1651 56.7091 33.8926 56.3676 33.8926C56.0261 33.8926 55.7493 34.1651 55.7493 34.5013C55.7493 34.8374 56.0261 35.1099 56.3676 35.1099Z" fill="white"/>
<path d="M73.2111 22.9322C73.5526 22.9322 73.8294 22.6597 73.8294 22.3235C73.8294 21.9874 73.5526 21.7148 73.2111 21.7148C72.8696 21.7148 72.5928 21.9874 72.5928 22.3235C72.5928 22.6597 72.8696 22.9322 73.2111 22.9322Z" fill="white"/>
<path d="M71.382 21.7408C71.7235 21.7408 72.0003 21.4683 72.0003 21.1321C72.0003 20.796 71.7235 20.5234 71.382 20.5234C71.0405 20.5234 70.7637 20.796 70.7637 21.1321C70.7637 21.4683 71.0405 21.7408 71.382 21.7408Z" fill="white"/>
<path d="M69.7306 20.5494C70.0721 20.5494 70.349 20.2769 70.349 19.9407C70.349 19.6045 70.0721 19.332 69.7306 19.332C69.3891 19.332 69.1123 19.6045 69.1123 19.9407C69.1123 20.2769 69.3891 20.5494 69.7306 20.5494Z" fill="white"/>
<path d="M59.0097 38.2545C59.3512 38.2545 59.628 37.982 59.628 37.6458C59.628 37.3096 59.3512 37.0371 59.0097 37.0371C58.6682 37.0371 58.3914 37.3096 58.3914 37.6458C58.3914 37.982 58.6682 38.2545 59.0097 38.2545Z" fill="white"/>
<path d="M83.82 6.56893C84.1615 6.56893 84.4384 6.29641 84.4384 5.96025C84.4384 5.62408 84.1615 5.35156 83.82 5.35156C83.4785 5.35156 83.2017 5.62408 83.2017 5.96025C83.2017 6.29641 83.4785 6.56893 83.82 6.56893Z" fill="white"/>
<path d="M87.8954 24.1256C88.2369 24.1256 88.5138 23.8531 88.5138 23.5169C88.5138 23.1807 88.2369 22.9082 87.8954 22.9082C87.5539 22.9082 87.2771 23.1807 87.2771 23.5169C87.2771 23.8531 87.5539 24.1256 87.8954 24.1256Z" fill="white"/>
<path d="M81.4679 20.6978C81.8094 20.6978 82.0863 20.4253 82.0863 20.0892C82.0863 19.753 81.8094 19.4805 81.4679 19.4805C81.1264 19.4805 80.8496 19.753 80.8496 20.0892C80.8496 20.4253 81.1264 20.6978 81.4679 20.6978Z" fill="white"/>
<path d="M70.4589 25.358C70.8004 25.358 71.0772 25.0855 71.0772 24.7493C71.0772 24.4131 70.8004 24.1406 70.4589 24.1406C70.1174 24.1406 69.8406 24.4131 69.8406 24.7493C69.8406 25.0855 70.1174 25.358 70.4589 25.358Z" fill="white"/>
<path d="M119.008 125.276C119.35 125.276 119.627 125.003 119.627 124.667C119.627 124.331 119.35 124.059 119.008 124.059C118.667 124.059 118.39 124.331 118.39 124.667C118.39 125.003 118.667 125.276 119.008 125.276Z" fill="white"/>
<path d="M36.8819 110.336C37.2244 110.336 37.502 110.063 37.502 109.726C37.502 109.389 37.2244 109.115 36.8819 109.115C36.5394 109.115 36.2617 109.389 36.2617 109.726C36.2617 110.063 36.5394 110.336 36.8819 110.336Z" fill="white"/>
<path d="M79.9266 118.194C80.2691 118.194 80.5467 117.92 80.5467 117.583C80.5467 117.246 80.2691 116.973 79.9266 116.973C79.5841 116.973 79.3064 117.246 79.3064 117.583C79.3064 117.92 79.5841 118.194 79.9266 118.194Z" fill="white"/>
<path d="M49.6924 109.848C50.0349 109.848 50.3126 109.575 50.3126 109.237C50.3126 108.9 50.0349 108.627 49.6924 108.627C49.3499 108.627 49.0723 108.9 49.0723 109.237C49.0723 109.575 49.3499 109.848 49.6924 109.848Z" fill="white"/>
<path d="M55.0464 118.451C55.389 118.451 55.6666 118.178 55.6666 117.841C55.6666 117.504 55.389 117.23 55.0464 117.23C54.7039 117.23 54.4263 117.504 54.4263 117.841C54.4263 118.178 54.7039 118.451 55.0464 118.451Z" fill="white"/>
<path d="M94.4584 113.03C94.7999 113.03 95.0768 112.757 95.0768 112.421C95.0768 112.085 94.7999 111.812 94.4584 111.812C94.1169 111.812 93.8401 112.085 93.8401 112.421C93.8401 112.757 94.1169 113.03 94.4584 113.03Z" fill="white"/>
<path d="M116.186 100.96C116.528 100.96 116.805 100.687 116.805 100.351C116.805 100.015 116.528 99.7422 116.186 99.7422C115.845 99.7422 115.568 100.015 115.568 100.351C115.568 100.687 115.845 100.96 116.186 100.96Z" fill="white"/>
<path d="M132.66 108.368C133.001 108.368 133.278 108.095 133.278 107.759C133.278 107.423 133.001 107.15 132.66 107.15C132.318 107.15 132.041 107.423 132.041 107.759C132.041 108.095 132.318 108.368 132.66 108.368Z" fill="white"/>
<path d="M138.274 111.905C138.616 111.905 138.892 111.632 138.892 111.296C138.892 110.96 138.616 110.688 138.274 110.688C137.933 110.688 137.656 110.96 137.656 111.296C137.656 111.632 137.933 111.905 138.274 111.905Z" fill="white"/>
<path d="M139.197 102.26C139.538 102.26 139.815 101.988 139.815 101.652C139.815 101.315 139.538 101.043 139.197 101.043C138.855 101.043 138.579 101.315 138.579 101.652C138.579 101.988 138.855 102.26 139.197 102.26Z" fill="white"/>
<path d="M57.2885 88.606C57.63 88.606 57.9068 88.3335 57.9068 87.9974C57.9068 87.6612 57.63 87.3887 57.2885 87.3887C56.947 87.3887 56.6702 87.6612 56.6702 87.9974C56.6702 88.3335 56.947 88.606 57.2885 88.606Z" fill="white"/>
<path d="M57.5237 102.79C57.9797 102.79 58.3493 102.426 58.3493 101.977C58.3493 101.528 57.9797 101.164 57.5237 101.164C57.0677 101.164 56.698 101.528 56.698 101.977C56.698 102.426 57.0677 102.79 57.5237 102.79Z" fill="white"/>
<path d="M62.4775 113.085C62.9335 113.085 63.3032 112.721 63.3032 112.272C63.3032 111.823 62.9335 111.459 62.4775 111.459C62.0215 111.459 61.6519 111.823 61.6519 112.272C61.6519 112.721 62.0215 113.085 62.4775 113.085Z" fill="white"/>
<path d="M121.816 102.356C122.272 102.356 122.641 101.992 122.641 101.543C122.641 101.094 122.272 100.73 121.816 100.73C121.36 100.73 120.99 101.094 120.99 101.543C120.99 101.992 121.36 102.356 121.816 102.356Z" fill="white"/>
<path d="M143.173 101.165C143.629 101.165 143.999 100.801 143.999 100.352C143.999 99.9029 143.629 99.5391 143.173 99.5391C142.717 99.5391 142.347 99.9029 142.347 100.352C142.347 100.801 142.717 101.165 143.173 101.165Z" fill="white"/>
<path d="M132.604 96.7213C133.06 96.7213 133.43 96.3574 133.43 95.9085C133.43 95.4596 133.06 95.0957 132.604 95.0957C132.148 95.0957 131.779 95.4596 131.779 95.9085C131.779 96.3574 132.148 96.7213 132.604 96.7213Z" fill="white"/>
<path d="M121.816 97.1549C122.272 97.1549 122.641 96.791 122.641 96.3421C122.641 95.8932 122.272 95.5293 121.816 95.5293C121.36 95.5293 120.99 95.8932 120.99 96.3421C120.99 96.791 121.36 97.1549 121.816 97.1549Z" fill="white"/>
<path d="M99.5611 13.4166L101.614 13.2234L99.5648 13.1096C99.5005 12.7195 99.1831 12.4142 98.7831 12.3636L98.5868 10.3516L98.4694 12.3799C98.0987 12.4612 97.8143 12.7664 97.7685 13.1457L95.6694 13.3336L97.7832 13.4455C97.8602 13.7941 98.1464 14.0669 98.5061 14.1319L98.6969 16.2054L98.8088 14.1355C99.1886 14.0723 99.4895 13.7851 99.5611 13.4166Z" fill="white"/>
<path d="M64.9085 35.9186L66.9617 35.7253L64.9122 35.6115C64.8498 35.2214 64.5305 34.9162 64.1305 34.8656L63.9342 32.8535L63.8186 34.8819C63.4461 34.9631 63.1618 35.2684 63.1159 35.6477L61.0168 35.8355L63.1306 35.9475C63.2076 36.2961 63.4939 36.5688 63.8535 36.6338L64.0443 38.7073L64.1581 36.6375C64.5379 36.576 64.8388 36.2871 64.9085 35.9186Z" fill="white"/>
<path d="M141.668 95.4088L143.722 95.2156L141.672 95.1018C141.61 94.7116 141.29 94.4064 140.89 94.3558L140.694 92.3438L140.579 94.3721C140.208 94.4534 139.923 94.7586 139.878 95.1379L137.779 95.3258L139.892 95.4377C139.969 95.7863 140.256 96.0591 140.615 96.1241L140.806 98.1976L140.92 96.1277C141.296 96.0663 141.597 95.7791 141.668 95.4088Z" fill="white"/>
<path d="M57.973 126.514L60.0261 126.321L57.9766 126.207C57.9124 125.817 57.595 125.512 57.195 125.461L56.9987 123.451L56.8831 125.478C56.5106 125.559 56.2262 125.864 56.1803 126.244L54.0813 126.431L56.195 126.543C56.2721 126.892 56.5583 127.166 56.9179 127.23L57.1088 129.303L57.2225 127.233C57.6005 127.172 57.9032 126.883 57.973 126.514Z" fill="white"/>
<path d="M135.146 111.344L137.199 111.151L135.149 111.037C135.087 110.647 134.768 110.342 134.368 110.291L134.171 108.279L134.056 110.306C133.685 110.387 133.401 110.692 133.355 111.072L131.256 111.259L133.37 111.371C133.447 111.72 133.733 111.993 134.092 112.058L134.283 114.131L134.397 112.061C134.773 112.002 135.076 111.713 135.146 111.344Z" fill="white"/>
<path d="M101.136 55.133C92.5724 58.4094 84.2203 61.3336 77.1727 63.5047C62.8519 67.919 23.6692 79.8686 0 94.9322L1.98161 95.6908C16.4033 87.6713 25.7775 85.1517 34.7883 82.3612C44.5862 79.3268 76.2608 72.0298 90.6037 68.0562C95.4494 66.7142 101.125 64.9568 107.135 62.8183C105.737 60.8984 104.262 58.973 102.71 57.0512C102.191 56.4028 101.664 55.7634 101.136 55.133ZM111.598 69.3278C109.524 70.7059 107.787 71.8059 106.57 72.4994C99.5246 76.5091 65.1748 99.5921 57.3603 104.902C49.5458 110.212 27.8563 130.369 21.4711 136.221L21.2509 138.604C41.8377 120.397 48.2963 115.907 56.4796 109.779C66.6078 102.193 87.5597 88.159 94.6806 83.6616C101.488 79.3629 107.627 75.4092 113.137 71.7914C113.047 71.6433 112.957 71.4952 112.867 71.3453C112.453 70.6752 112.029 70.0033 111.598 69.3278ZM143.779 35.8701C133.75 41.6571 117.943 48.6416 102.607 54.5677C102.974 55.0102 103.339 55.4563 103.702 55.9061C105.416 58.0301 107.033 60.1687 108.554 62.309C120.609 57.938 133.836 52.0716 144.331 44.9715C139.331 49.635 122.801 61.796 112.722 68.5746C113.242 69.4073 113.744 70.2399 114.231 71.0689C129.5 61.0103 139.775 53.6068 145.762 48.6561C154.019 41.8287 172.844 26.5485 180 6.06641C167.448 21.782 152.608 30.7749 143.779 35.8701Z" fill="#FC3D21"/>
<path d="M74.1929 90.4516C72.569 88.4395 70.3232 85.7447 68.637 83.6549C66.382 80.8608 64.2958 78.0377 62.3839 75.2183C61.7601 75.3718 61.1381 75.5253 60.5161 75.6789C62.8243 79.2244 65.3875 82.7645 68.1801 86.2251C70.2205 88.7538 72.0755 90.7894 73.0259 92.0555C73.2186 92.312 73.6002 92.8791 74.1158 93.6341C74.7103 93.2367 75.3103 92.8357 75.9158 92.4312C75.3304 91.8044 74.7525 91.1452 74.1929 90.4516ZM86.0458 101.043C84.7119 99.8004 81.4771 97.7251 78.1102 94.6112C77.3671 95.1133 76.6167 95.6227 75.8644 96.1356C78.0386 99.152 81.0001 102.856 83.3193 103.937C86.8128 105.566 87.754 102.636 86.0458 101.043ZM103.702 55.9066C84.4514 32.0542 60.9344 18.9504 50.7952 26.8813C42.9201 33.0404 46.1531 51.0408 57.0079 69.9497C57.5693 69.76 58.1253 69.574 58.6757 69.3897C47.72 50.9667 44.7219 33.846 52.1493 28.0355C61.483 20.7349 84.0202 33.8893 102.713 57.0499C106.583 61.8435 109.985 66.6552 112.865 71.3458C123.896 89.3173 127.282 105.569 119.66 112.203C117.328 114.234 110.201 115.03 100.866 110.894C100.735 111.055 100.945 111.49 101.108 111.597C109.166 114.786 116.886 116.002 120.783 112.955C130.148 105.629 122.953 79.759 103.702 55.9066Z" fill="white"/>
<path d="M21.1392 58.7363H33.4692L43.8176 76.0214C43.8176 76.0214 43.8176 63.5046 43.8176 62.5293C43.8176 61.0121 41.8635 59.0343 41.1754 58.7363C42.0011 58.7363 49.212 58.7363 49.7074 58.7363C49.1844 58.8718 47.5056 60.8766 47.5056 62.5293C47.5056 63.3421 47.5056 81.4942 47.5056 82.3611C47.5056 83.5803 49.2945 85.26 50.1477 85.9103H38.2581L27.7445 68.5439C27.7445 68.5439 27.7445 81.4942 27.7445 82.1986C27.7445 83.5532 29.0931 84.8537 30.4968 85.9645H21.4144C22.7079 85.4226 23.9464 83.7158 24.0565 82.3611C24.1666 81.0065 24.0565 63.5317 24.0565 62.7731C24.0565 61.1205 22.4327 59.7658 21.1392 58.7363Z" fill="white"/>
<path d="M133.926 85.9103H150.329C149.421 85.6935 148.403 84.6369 147.852 83.2281C147.302 81.8193 138.605 58.7363 138.605 58.7363H132.368C130.599 59.9898 128.704 61.3119 126.68 62.7045C126.675 62.7551 126.669 62.8056 126.66 62.8544C126.388 64.48 121.508 81.8807 121.21 82.7404C120.798 83.9325 118.678 85.26 117.825 85.9645H126.66C125.779 84.9891 125.064 84.0409 125.229 82.9572C125.394 81.8735 125.889 79.7061 125.889 79.7061H135.027C135.44 80.7898 135.748 81.7633 135.907 82.6862C136.1 83.797 134.944 85.0433 133.926 85.9103ZM126.715 76.2382L129.797 66.3223L133.871 76.2382H126.715ZM125.326 59.7261C125.779 59.3974 126.234 59.0669 126.687 58.7363H124.293C124.531 58.9531 124.926 59.2944 125.326 59.7261Z" fill="white"/>
<path d="M62.5878 82.9572C62.753 81.8735 63.2484 79.7061 63.2484 79.7061H72.3858C72.7986 80.7898 73.1069 81.7633 73.2665 82.6862C73.4592 83.797 72.3032 85.0433 71.2849 85.9103H85.7268C86.0277 85.7116 86.3268 85.5129 86.6259 85.316C86.0663 84.8284 85.5507 84.0969 85.2112 83.2281C84.6608 81.8193 75.9637 58.7363 75.9637 58.7363H61.6521C62.3401 59.3595 64.3218 61.0392 64.019 62.8544C63.7493 64.48 58.8668 81.8807 58.5696 82.7404C58.1567 83.9325 56.0375 85.26 55.1843 85.9645H64.019C63.1383 84.9891 62.4227 84.0409 62.5878 82.9572ZM67.1566 66.3223L71.2299 76.2382H64.0741L67.1566 66.3223Z" fill="white"/>
<path d="M112.475 72.2251C109.781 73.9916 106.939 75.8357 103.945 77.761C105.288 78.4022 106.358 79.2078 106.46 80.2482C106.651 82.2024 102.662 83.1471 99.0568 82.7407C98.3357 82.6594 97.6275 82.4734 96.9523 82.2241C96.2037 82.6991 95.4477 83.1778 94.6808 83.6618C93.901 84.1549 92.9542 84.7618 91.8735 85.4626V88.2676C92.5891 86.8859 94.1542 85.6486 95.3688 85.5854C95.8918 85.5583 97.7082 87.211 105.194 86.8046C108.827 86.6077 115.845 82.7949 115.735 78.4059C115.669 75.8122 114.293 73.7893 112.475 72.2251ZM91.8717 79.0019V81.8593C92.534 81.424 93.1872 80.9959 93.8276 80.5787C92.8203 79.8887 92.1065 79.2439 91.8717 79.0019ZM109.915 70.4316C109.218 70.0252 108.512 69.6694 107.835 69.3551C104.312 67.7295 100.624 67.4315 99.8531 65.237C99.31 63.6891 100.844 62.2568 104.587 62.311C108.33 62.3652 111.798 64.5597 112.734 65.3454V58.3555C112.458 58.6264 111.251 59.9901 110.147 59.7643C108.027 59.3308 104.422 58.7655 100.294 58.789C95.5597 58.816 91.4863 62.4176 91.3487 66.9709C91.1561 73.3377 96.3303 75.0716 99.2477 76.0741C99.5486 76.177 99.8917 76.2872 100.264 76.4046C103.062 74.6129 105.275 73.233 106.57 72.4978C107.44 72.0048 108.58 71.2967 109.915 70.4316Z" fill="white"/>
</svg>
