<svg width="93" height="80" viewBox="0 0 93 80" fill="none" xmlns="http://www.w3.org/2000/svg">
<path d="M0 20C0 8.95431 8.95431 0 20 0H73C84.0457 0 93 8.95431 93 20V60C93 71.0457 84.0457 80 73 80H20C8.9543 80 0 71.0457 0 60V20Z" fill="#0B3D91"/>
<path d="M43.1437 29.1442L44.625 27.6442V36.2504C44.625 36.7477 44.8225 37.2246 45.1741 37.5762C45.5258 37.9279 46.0027 38.1254 46.5 38.1254C46.9972 38.1254 47.4742 37.9279 47.8258 37.5762C48.1774 37.2246 48.375 36.7477 48.375 36.2504V27.6442L49.8562 29.1442C50.0305 29.3199 50.2379 29.4594 50.4664 29.5546C50.6949 29.6498 50.9399 29.6988 51.1875 29.6988C51.435 29.6988 51.6801 29.6498 51.9085 29.5546C52.137 29.4594 52.3444 29.3199 52.5187 29.1442C52.6944 28.9699 52.8339 28.7625 52.9291 28.534C53.0243 28.3055 53.0733 28.0604 53.0733 27.8129C53.0733 27.5654 53.0243 27.3203 52.9291 27.0918C52.8339 26.8633 52.6944 26.656 52.5187 26.4817L47.8312 21.7942C47.6529 21.6235 47.4426 21.4897 47.2125 21.4004C46.756 21.2129 46.2439 21.2129 45.7875 21.4004C45.5573 21.4897 45.347 21.6235 45.1687 21.7942L40.4812 26.4817C40.1281 26.8347 39.9298 27.3136 39.9298 27.8129C39.9298 28.3122 40.1281 28.7911 40.4812 29.1442C40.8343 29.4972 41.3131 29.6956 41.8125 29.6956C42.3118 29.6956 42.7906 29.4972 43.1437 29.1442ZM57.75 31.6754C57.5727 31.4981 57.3622 31.3575 57.1306 31.2616C56.8989 31.1656 56.6507 31.1162 56.4 31.1162C56.1492 31.1162 55.901 31.1656 55.6693 31.2616C55.4377 31.3575 55.2272 31.4981 55.05 31.6754C54.8727 31.8527 54.732 32.0632 54.6361 32.2948C54.5402 32.5264 54.4908 32.7747 54.4908 33.0254C54.4908 33.2761 54.5402 33.5244 54.6361 33.756C54.732 33.9877 54.8727 34.1981 55.05 34.3754C56.7417 36.0666 57.894 38.2215 58.361 40.5675C58.828 42.9136 58.5888 45.3455 57.6736 47.5556C56.7583 49.7657 55.2083 51.6548 53.2193 52.9838C51.2304 54.3129 48.8921 55.0223 46.5 55.0223C44.1079 55.0223 41.7695 54.3129 39.7806 52.9838C37.7917 51.6548 36.2416 49.7657 35.3264 47.5556C34.4111 45.3455 34.1719 42.9136 34.6389 40.5675C35.1059 38.2215 36.2582 36.0666 37.95 34.3754C38.1272 34.1981 38.2679 33.9877 38.3638 33.756C38.4598 33.5244 38.5091 33.2761 38.5091 33.0254C38.5091 32.7747 38.4598 32.5264 38.3638 32.2948C38.2679 32.0632 38.1272 31.8527 37.95 31.6754C37.7727 31.4981 37.5622 31.3575 37.3306 31.2616C37.0989 31.1656 36.8507 31.1162 36.6 31.1162C36.3492 31.1162 36.101 31.1656 35.8693 31.2616C35.6377 31.3575 35.4272 31.4981 35.25 31.6754C33.041 33.8976 31.5397 36.7242 30.9353 39.7986C30.331 42.873 30.6506 46.0576 31.854 48.9505C33.0574 51.8435 35.0906 54.3153 37.6971 56.0541C40.3036 57.7929 43.3667 58.7208 46.5 58.7208C49.6332 58.7208 52.6963 57.7929 55.3028 56.0541C57.9093 54.3153 59.9425 51.8435 61.1459 48.9505C62.3493 46.0576 62.6689 42.873 62.0646 39.7986C61.4602 36.7242 59.9589 33.8976 57.75 31.6754Z" fill="white"/>
</svg>
