<svg width="170" height="176" viewBox="0 0 170 176" fill="none" xmlns="http://www.w3.org/2000/svg">
<g clip-path="url(#clip0_330_6044)">
<path d="M87.3278 12.3743C85.9136 11.6672 83.7923 11.6672 82.3781 12.3743C63.6397 23.3344 53.0331 43.1334 54.8009 65.4073L55.508 73.8926L43.8407 81.3172C37.4768 84.1456 34.6484 91.2167 36.7697 97.5806L42.7801 119.147C43.1336 120.915 44.1943 121.976 45.9621 122.329C47.3763 123.036 49.144 122.683 50.5582 121.976L63.9933 113.491C65.7611 117.38 68.2359 120.562 70.3572 124.097C71.4179 125.158 72.8321 125.865 74.2463 125.865H96.1666C97.5809 125.865 98.6415 125.511 99.7022 124.451L100.056 124.097C102.884 120.562 105.359 117.38 107.127 113.491L119.855 121.976C121.269 122.683 123.037 123.036 124.451 122.329C125.158 122.329 125.865 121.622 126.219 121.269C126.926 120.562 127.279 120.208 127.633 119.147L133.643 97.5806C135.411 91.5702 132.583 84.4992 126.926 80.9636L114.551 73.539L114.905 65.4073C116.673 43.8405 105.713 22.9809 87.3278 12.3743ZM56.9222 90.156C57.6293 95.1058 58.3364 100.056 59.7506 104.298L50.5583 109.955L46.3156 95.1058C45.6085 92.9844 46.6692 91.2167 48.7905 89.8025L56.2151 85.2063L56.9222 90.156ZM123.39 95.1058L119.148 109.955L110.662 104.298C112.43 99.702 113.137 94.7522 113.491 90.156L113.491 85.2063L120.915 89.8025C123.39 90.8631 124.097 93.6916 123.39 95.1058ZM90.1562 56.922C87.3278 59.7504 82.3781 59.7504 79.5496 56.922C76.7212 54.0936 76.7212 49.1438 79.5496 46.3154C82.3781 43.487 87.3278 43.487 90.1562 46.3154C92.9847 49.1438 93.3382 53.74 90.1562 56.922Z" fill="#53AEE9"/>
</g>
<rect opacity="0.7" x="36" y="137" width="97" height="39" fill="black"/>
<defs>
<clipPath id="clip0_330_6044">
<rect width="120" height="120" fill="white" transform="translate(0 84.8535) rotate(-45)"/>
</clipPath>
</defs>
</svg>
