<svg width="64" height="64" viewBox="0 0 64 64" fill="none" xmlns="http://www.w3.org/2000/svg">
<path d="M48 11.9458C43.7565 7.70231 38.0011 5.31836 32 5.31836C25.9988 5.31836 20.2434 7.70231 16 11.9458C11.7565 16.1892 9.37256 21.9446 9.37256 27.9458C9.37256 33.9469 11.7565 39.7023 16 43.9458L30.0533 58.0258C30.3012 58.2757 30.5961 58.4741 30.9211 58.6095C31.2461 58.7449 31.5946 58.8146 31.9466 58.8146C32.2987 58.8146 32.6472 58.7449 32.9722 58.6095C33.2971 58.4741 33.5921 58.2757 33.84 58.0258L48 43.8124C52.2257 39.5866 54.5997 33.8553 54.5997 27.8791C54.5997 21.903 52.2257 16.1716 48 11.9458ZM44.1866 39.9991L32 52.2391L19.8133 39.9991C17.4057 37.5893 15.7666 34.5198 15.1032 31.1786C14.4397 27.8373 14.7818 24.3744 16.0861 21.2276C17.3904 18.0807 19.5984 15.3912 22.431 13.499C25.2636 11.6069 28.5935 10.5969 32 10.5969C35.4064 10.5969 38.7364 11.6069 41.569 13.499C44.4015 15.3912 46.6095 18.0807 47.9138 21.2276C49.2181 24.3744 49.5602 27.8373 48.8968 31.1786C48.2334 34.5198 46.5943 37.5893 44.1866 39.9991ZM24 19.7591C21.8472 21.9185 20.6384 24.8433 20.6384 27.8924C20.6384 30.9416 21.8472 33.8664 24 36.0258C25.5993 37.6279 27.6362 38.722 29.855 39.1709C32.0739 39.6197 34.3758 39.4033 36.4722 38.5489C38.5685 37.6944 40.3658 36.2399 41.6386 34.3678C42.9114 32.4957 43.603 30.2894 43.6266 28.0258C43.6387 26.5143 43.3475 25.0158 42.7704 23.6188C42.1933 22.2218 41.3419 20.9547 40.2666 19.8924C39.2098 18.8113 37.9495 17.9499 36.5584 17.3577C35.1673 16.7655 33.6729 16.4542 32.161 16.4419C30.6492 16.4295 29.1498 16.7162 27.7492 17.2855C26.3486 17.8548 25.0744 18.6955 24 19.7591ZM36.5066 32.2391C35.4961 33.2651 34.1605 33.9082 32.7283 34.0585C31.2961 34.2087 29.8561 33.8568 28.6547 33.0629C27.4532 32.269 26.5648 31.0824 26.1413 29.706C25.7179 28.3296 25.7857 26.8488 26.3332 25.5169C26.8807 24.1849 27.8738 23.0845 29.1429 22.4037C30.4119 21.723 31.878 21.5042 33.2905 21.7848C34.703 22.0653 35.9741 22.8278 36.8867 23.9419C37.7992 25.0559 38.2964 26.4524 38.2933 27.8924C38.2545 29.5385 37.564 31.1019 36.3733 32.2391H36.5066Z" fill="white"/>
</svg>
